# Blender v2.79 (sub 0) OBJ File: 'inbussleutel.blend'
# www.blender.org
mtllib inbussleutel.mtl
o Cylinder
v 0.000000 1.000001 -34.591274
v 0.000000 0.999999 -0.480000
v 0.866025 0.500001 -34.591274
v 0.866025 0.499999 -0.480000
v 0.866025 -0.499999 -34.591274
v 0.866025 -0.500001 -0.480000
v -0.000000 -0.999999 -34.591274
v -0.000000 -1.000001 -0.480000
v -0.866025 -0.499999 -34.591274
v -0.866025 -0.500001 -0.480000
v -0.866025 0.500001 -34.591274
v -0.866025 0.499999 -0.480000
v 0.000001 1.000001 -35.091274
v 0.851524 0.500001 -35.249092
v 0.851524 -0.499999 -35.249092
v 0.000001 -0.999999 -35.091274
v -0.851523 -0.499999 -34.933456
v -0.851523 0.500001 -34.933456
v -0.091117 1.000001 -35.582901
v 0.720065 0.500001 -35.886192
v 0.720065 -0.499999 -35.886192
v -0.091117 -0.999999 -35.582901
v -0.902299 -0.499999 -35.279613
v -0.902299 0.500001 -35.279613
v -0.266220 1.000001 -36.051239
v 0.479972 0.500001 -36.490776
v 0.479972 -0.499999 -36.490776
v -0.266220 -0.999999 -36.051239
v -1.012413 -0.499999 -35.611694
v -1.012413 0.500001 -35.611694
v -0.519989 1.000001 -36.482052
v 0.138542 0.500001 -37.044491
v 0.138541 -0.499999 -37.044491
v -0.519989 -0.999999 -36.482052
v -1.178520 -0.499999 -35.919613
v -1.178520 0.500001 -35.919613
v -0.844713 1.000001 -36.862255
v -0.293853 0.500001 -37.530502
v -0.293854 -0.499999 -37.530502
v -0.844713 -0.999999 -36.862255
v -1.395573 -0.499999 -36.194008
v -1.395573 0.500001 -36.194008
v -1.230525 1.000001 -37.180294
v -0.804074 0.500001 -37.934044
v -0.804074 -0.499999 -37.934044
v -1.230525 -0.999999 -37.180294
v -1.656976 -0.499999 -36.426544
v -1.656976 0.500001 -36.426544
v -1.665703 1.000001 -37.426506
v -1.376618 0.500001 -38.242859
v -1.376618 -0.499999 -38.242859
v -1.665703 -0.999999 -37.426506
v -1.954788 -0.499999 -36.610153
v -1.954788 0.500001 -36.610153
v -2.137024 1.000001 -37.593407
v -1.994089 0.500001 -38.447556
v -1.994089 -0.499999 -38.447556
v -2.137024 -0.999999 -37.593407
v -2.279959 -0.499999 -36.739258
v -2.279959 0.500001 -36.739258
v -2.630167 1.000001 -37.675934
v -2.637724 0.500001 -38.541924
v -2.637725 -0.499999 -38.541924
v -2.630167 -0.999999 -37.675934
v -2.622609 -0.499999 -36.809937
v -2.622609 0.500001 -36.809937
v -10.438709 1.000003 -37.607780
v -10.446267 0.500003 -38.473778
v -10.446267 -0.499997 -38.473778
v -10.438709 -0.999997 -37.607780
v -10.431151 -0.499997 -36.741791
v -10.431151 0.500003 -36.741791
vn 0.5000 0.8660 0.0000
vn 1.0000 -0.0000 -0.0000
vn 0.5000 -0.8660 -0.0000
vn -0.5000 -0.8660 -0.0000
vn -0.0000 0.0000 1.0000
vn -1.0000 0.0000 0.0000
vn -0.5000 0.8660 0.0000
vn 0.5027 0.8644 -0.0063
vn -0.9894 0.0000 0.1451
vn 0.5027 -0.8644 -0.0063
vn -0.5037 0.8638 -0.0087
vn -0.5037 -0.8638 -0.0087
vn 0.9998 -0.0000 -0.0220
vn -0.9991 0.0000 -0.0423
vn -0.4742 -0.8640 0.1690
vn 0.4930 -0.8646 -0.0972
vn 0.4930 0.8646 -0.0972
vn -0.4963 0.8640 0.0841
vn -0.4963 -0.8640 0.0841
vn 0.9794 0.0000 -0.2021
vn 0.4300 -0.8646 -0.2600
vn 0.9294 -0.0000 -0.3691
vn -0.9492 0.0000 0.3147
vn 0.4686 -0.8646 -0.1814
vn 0.4686 0.8646 -0.1814
vn -0.4742 0.8640 0.1690
vn 0.7471 -0.0000 -0.6647
vn 0.4300 0.8646 -0.2600
vn -0.4377 0.8640 0.2488
vn -0.4377 -0.8640 0.2488
vn 0.8512 -0.0000 -0.5249
vn -0.8801 0.0000 0.4748
vn 0.3152 0.8646 -0.3914
vn -0.7843 0.0000 0.6204
vn 0.3784 -0.8646 -0.3307
vn 0.3784 0.8646 -0.3307
vn -0.3878 0.8640 0.3210
vn -0.3878 -0.8640 0.3210
vn -0.5248 0.0000 0.8512
vn -0.3262 0.8640 0.3834
vn -0.3262 -0.8640 0.3834
vn 0.6203 -0.0000 -0.7843
vn -0.6646 0.0000 0.7472
vn 0.3152 -0.8646 -0.3914
vn -0.1754 0.8640 0.4719
vn 0.2424 -0.8646 -0.4402
vn 0.2424 0.8646 -0.4402
vn -0.2546 0.8640 0.4343
vn -0.2546 -0.8640 0.4343
vn 0.4747 -0.0000 -0.8801
vn -0.2020 0.0000 0.9794
vn -0.1754 -0.8640 0.4719
vn 0.3147 -0.0000 -0.9492
vn -0.3690 0.0000 0.9294
vn 0.1623 -0.8646 -0.4756
vn 0.1623 0.8646 -0.4756
vn 0.0044 0.8660 0.5000
vn 0.0773 -0.8646 -0.4965
vn 0.0773 0.8646 -0.4965
vn -0.0908 0.8640 0.4952
vn -0.0908 -0.8640 0.4952
vn 0.1451 -0.0000 -0.9894
vn -1.0000 0.0000 0.0087
vn 0.0044 -0.8660 0.5000
vn -0.0087 0.0000 -1.0000
vn 0.0087 0.0000 1.0000
vn -0.0044 -0.8660 -0.5000
vn -0.0044 0.8660 -0.5000
usemtl None
s off
f 1//1 2//1 4//1 3//1
f 3//2 4//2 6//2 5//2
f 5//3 6//3 8//3 7//3
f 7//4 8//4 10//4 9//4
f 4//5 2//5 12//5 10//5 8//5 6//5
f 9//6 10//6 12//6 11//6
f 11//7 12//7 2//7 1//7
f 1//8 3//8 14//8 13//8
f 17//9 18//9 24//9 23//9
f 5//10 7//10 16//10 15//10
f 11//11 1//11 13//11 18//11
f 7//12 9//12 17//12 16//12
f 3//13 5//13 15//13 14//13
f 9//14 11//14 18//14 17//14
f 22//15 23//15 29//15 28//15
f 15//16 16//16 22//16 21//16
f 13//17 14//17 20//17 19//17
f 18//18 13//18 19//18 24//18
f 16//19 17//19 23//19 22//19
f 14//20 15//20 21//20 20//20
f 27//21 28//21 34//21 33//21
f 20//22 21//22 27//22 26//22
f 23//23 24//23 30//23 29//23
f 21//24 22//24 28//24 27//24
f 19//25 20//25 26//25 25//25
f 24//26 19//26 25//26 30//26
f 32//27 33//27 39//27 38//27
f 25//28 26//28 32//28 31//28
f 30//29 25//29 31//29 36//29
f 28//30 29//30 35//30 34//30
f 26//31 27//31 33//31 32//31
f 29//32 30//32 36//32 35//32
f 37//33 38//33 44//33 43//33
f 35//34 36//34 42//34 41//34
f 33//35 34//35 40//35 39//35
f 31//36 32//36 38//36 37//36
f 36//37 31//37 37//37 42//37
f 34//38 35//38 41//38 40//38
f 47//39 48//39 54//39 53//39
f 42//40 37//40 43//40 48//40
f 40//41 41//41 47//41 46//41
f 38//42 39//42 45//42 44//42
f 41//43 42//43 48//43 47//43
f 39//44 40//44 46//44 45//44
f 54//45 49//45 55//45 60//45
f 45//46 46//46 52//46 51//46
f 43//47 44//47 50//47 49//47
f 48//48 43//48 49//48 54//48
f 46//49 47//49 53//49 52//49
f 44//50 45//50 51//50 50//50
f 59//51 60//51 66//51 65//51
f 52//52 53//52 59//52 58//52
f 50//53 51//53 57//53 56//53
f 53//54 54//54 60//54 59//54
f 51//55 52//55 58//55 57//55
f 49//56 50//56 56//56 55//56
f 66//57 61//57 67//57 72//57
f 57//58 58//58 64//58 63//58
f 55//59 56//59 62//59 61//59
f 60//60 55//60 61//60 66//60
f 58//61 59//61 65//61 64//61
f 56//62 57//62 63//62 62//62
f 67//63 68//63 69//63 70//63 71//63 72//63
f 64//64 65//64 71//64 70//64
f 62//65 63//65 69//65 68//65
f 65//66 66//66 72//66 71//66
f 63//67 64//67 70//67 69//67
f 61//68 62//68 68//68 67//68
