# Blender v2.79 (sub 0) OBJ File: ''
# www.blender.org
mtllib box.mtl
o Cube
v 1.500000 -0.010000 -0.600000
v 1.500000 -0.021053 0.588769
v -1.500000 -0.021053 0.588769
v -1.500000 -0.010000 -0.600000
v 1.500001 0.010000 -0.600000
v 1.499999 -0.001624 0.593515
v -1.500000 -0.001624 0.593515
v -1.500000 0.010000 -0.600000
v 1.500000 -0.010000 -0.600000
v 1.500000 -0.010000 0.600000
v 1.500001 0.010000 -0.600000
v 1.499999 0.010000 0.600000
v -1.500000 -0.010000 0.600000
v -1.500000 -0.010000 -0.600000
v -1.500000 0.010000 0.600000
v -1.500000 0.010000 -0.600000
v 1.500000 -0.010000 -0.600000
v 1.500000 -0.010000 0.600000
v 1.500001 0.010000 -0.600000
v 1.499999 0.010000 0.600000
v -1.500000 -0.010000 0.600000
v -1.500000 -0.010000 -0.600000
v -1.500000 0.010000 0.600000
v -1.500000 0.010000 -0.600000
v 1.500000 -0.010000 -0.600000
v 1.500000 -0.010000 0.600000
v 1.500001 0.010000 -0.600000
v 1.499999 0.010000 0.600000
v -1.857612 0.207895 0.600000
v -1.857612 0.207895 -0.600000
v -1.857613 0.227895 0.600000
v -1.857612 0.227895 -0.600000
v 1.797225 0.207895 -0.600000
v 1.797225 0.207895 0.600000
v 1.797225 0.227895 -0.600000
v 1.797224 0.227895 0.600000
v 1.500000 0.437986 -1.211563
v -1.499999 0.437986 -1.211563
v 1.500001 0.457986 -1.211563
v -1.500000 0.457986 -1.211563
v 1.500000 -0.010000 -0.600000
v 1.500001 0.010000 -0.600000
v -1.500000 -0.010000 -0.600000
v -1.500000 0.010000 -0.600000
v 1.500000 0.437986 -1.211563
v 1.500001 0.457986 -1.211563
v -1.499999 0.437986 -1.211563
v -1.500000 0.457986 -1.211563
v 1.500000 -0.010000 -0.600000
v 1.500001 0.010000 -0.600000
v -1.500000 -0.010000 -0.600000
v -1.500000 0.010000 -0.600000
v 1.500000 0.437986 -1.211563
v 1.500001 0.457986 -1.211563
v -1.499999 0.437986 -1.211563
v -1.500000 0.457986 -1.211563
v 1.500000 -0.010000 -0.600000
v 1.500001 0.010000 -0.600000
v -1.500000 -0.010000 -0.600000
v -1.500000 0.010000 -0.600000
v 1.500000 0.437986 -1.211563
v 1.500001 0.457986 -1.211563
v -1.499999 0.437986 -1.211563
v -1.500000 0.457986 -1.211563
v 1.676933 0.070186 -0.584209
v 1.676934 0.090186 -0.584209
v -1.676933 0.070186 -0.584209
v -1.676933 0.090186 -0.584209
v 1.676933 0.518172 -1.195772
v 1.676934 0.538172 -1.195772
v -1.676932 0.518172 -1.195772
v -1.676933 0.538172 -1.195772
v 1.500000 -0.042735 0.862294
v -1.500000 -0.042735 0.862294
v 1.499999 -0.023307 0.867040
v -1.500000 -0.023307 0.867040
v 1.650138 0.035137 0.602493
v 1.650137 0.054566 0.607240
v 1.650138 0.013455 0.876019
v 1.650137 0.032883 0.880765
v 1.650138 0.035137 0.602493
v 1.650137 0.054566 0.607240
v 1.650138 0.013455 0.876019
v 1.650137 0.032883 0.880765
v -1.658389 0.020585 0.598940
v -1.658389 0.040014 0.603686
v -1.658389 -0.001098 0.872465
v -1.658389 0.018331 0.877211
vn -0.0000 -1.0000 -0.0093
vn 0.0000 1.0000 0.0097
vn -1.0000 0.0000 -0.0000
vn -0.0000 -0.9969 -0.0790
vn 0.0000 0.0000 1.0000
vn 0.0000 -0.8067 -0.5909
vn -1.0000 -0.0001 0.0001
vn 1.0000 -0.0000 0.0000
vn -0.5203 -0.8540 -0.0000
vn 0.0000 0.0000 -1.0000
vn -0.5912 0.8065 -0.0000
vn 0.5203 0.8540 0.0000
vn 0.5912 -0.8065 0.0000
vn -0.0000 0.8067 0.5909
vn 0.3859 -0.7442 -0.5452
vn 0.3859 0.7442 0.5452
vn -0.0889 0.0000 -0.9960
vn 0.0889 -0.0000 0.9960
vn -0.3859 0.7442 0.5452
vn -0.3859 -0.7442 -0.5452
vn 0.0889 0.0000 -0.9960
vn -0.0889 -0.0000 0.9960
vn -0.0000 -0.2373 0.9714
vn 0.0000 0.9969 0.0790
vn 0.2581 0.9631 0.0763
vn 0.3555 -0.9318 -0.0739
vn -0.0000 0.2373 -0.9714
vn -0.3555 0.9318 0.0739
vn -0.2581 -0.9631 -0.0763
usemtl Material
s off
f 1//1 2//1 3//1 4//1
f 5//2 8//2 7//2 6//2
f 5//3 6//3 12//3 11//3
f 3//4 2//4 73//4 74//4
f 12//5 10//5 18//5 20//5
f 1//6 4//6 38//6 37//6
f 4//3 3//3 13//3 14//3
f 6//7 2//7 10//7 12//7
f 1//5 5//5 11//5 9//5
f 2//8 1//8 9//8 10//8
f 17//5 19//5 27//5 25//5
f 19//5 20//5 28//5 27//5
f 10//5 9//5 17//5 18//5
f 3//8 7//8 15//8 13//8
f 11//5 12//5 20//5 19//5
f 9//5 11//5 19//5 17//5
f 7//8 8//8 16//8 15//8
f 8//5 4//5 14//5 16//5
f 22//9 21//9 29//9 30//9
f 24//10 22//10 30//10 32//10
f 15//5 16//5 24//5 23//5
f 13//5 15//5 23//5 21//5
f 20//5 18//5 26//5 28//5
f 18//5 17//5 25//5 26//5
f 16//5 14//5 22//5 24//5
f 14//5 13//5 21//5 22//5
f 29//3 31//3 32//3 30//3
f 33//8 35//8 36//8 34//8
f 27//11 28//11 36//11 35//11
f 25//10 27//10 35//10 33//10
f 23//12 24//12 32//12 31//12
f 21//5 23//5 31//5 29//5
f 28//5 26//5 34//5 36//5
f 26//13 25//13 33//13 34//13
f 39//10 37//10 38//10 40//10
f 39//5 5//5 42//5 46//5
f 8//14 5//14 39//14 40//14
f 37//5 39//5 46//5 45//5
f 47//5 43//5 51//5 55//5
f 46//5 42//5 50//5 54//5
f 38//5 4//5 43//5 47//5
f 40//5 38//5 47//5 48//5
f 5//5 1//5 41//5 42//5
f 8//5 40//5 48//5 44//5
f 1//5 37//5 45//5 41//5
f 4//5 8//5 44//5 43//5
f 54//5 50//5 58//5 62//5
f 51//5 52//5 60//5 59//5
f 45//5 46//5 54//5 53//5
f 42//5 41//5 49//5 50//5
f 44//5 48//5 56//5 52//5
f 41//5 45//5 53//5 49//5
f 48//5 47//5 55//5 56//5
f 43//5 44//5 52//5 51//5
f 57//15 61//15 69//15 65//15
f 60//16 64//16 72//16 68//16
f 55//5 51//5 59//5 63//5
f 53//5 54//5 62//5 61//5
f 50//5 49//5 57//5 58//5
f 52//5 56//5 64//5 60//5
f 49//5 53//5 61//5 57//5
f 56//5 55//5 63//5 64//5
f 66//8 65//8 69//8 70//8
f 67//3 68//3 72//3 71//3
f 64//17 63//17 71//17 72//17
f 59//18 60//18 68//18 67//18
f 62//19 58//19 66//19 70//19
f 63//20 59//20 67//20 71//20
f 61//21 62//21 70//21 69//21
f 58//22 57//22 65//22 66//22
f 73//23 75//23 76//23 74//23
f 6//24 7//24 76//24 75//24
f 76//25 7//25 86//25 88//25
f 73//26 2//26 77//26 79//26
f 77//5 78//5 82//5 81//5
f 2//27 6//27 78//27 77//27
f 6//28 75//28 80//28 78//28
f 75//23 73//23 79//23 80//23
f 81//8 82//8 84//8 83//8
f 78//5 80//5 84//5 82//5
f 80//5 79//5 83//5 84//5
f 79//5 77//5 81//5 83//5
f 86//3 85//3 87//3 88//3
f 74//23 76//23 88//23 87//23
f 7//27 3//27 85//27 86//27
f 3//29 74//29 87//29 85//29
